<svg viewBox="0 0 1200 400" xmlns="http://www.w3.org/2000/svg">
<defs>
  <style>
    @keyframes fadein { from{opacity:0;transform:translateY(10px)} to{opacity:1;transform:translateY(0)} }
    @keyframes pulse  { 0%,100%{opacity:.5} 50%{opacity:1} }
    @keyframes shimmer{ 0%{transform:translateX(-100%)} 100%{transform:translateX(400%)} }
    @keyframes glow   { 0%,100%{filter:drop-shadow(0 0 2px currentColor)} 50%{filter:drop-shadow(0 0 10px currentColor) drop-shadow(0 0 20px currentColor)} }
    .card-label { font-family:'Segoe UI',Arial,sans-serif; font-weight:700; font-size:10.5px }
    .card-phase { font-family:'Courier New',monospace; font-size:9px }
    .card-desc  { font-family:'Segoe UI',Arial,sans-serif; font-size:9px; fill:#8b9ab0 }
  </style>
  <linearGradient id="ibg" x1="0%" y1="0%" x2="0%" y2="100%">
    <stop offset="0%" style="stop-color:#070a10"/>
    <stop offset="100%" style="stop-color:#0d1117"/>
  </linearGradient>
</defs>

<rect width="1200" height="400" fill="url(#ibg)"/>
<rect width="1200" height="400" fill="none" stroke="#1a2332" stroke-width="1"/>

<!-- Title -->
<text x="600" y="32" text-anchor="middle" font-family="'Segoe UI',Arial,sans-serif" font-weight="900" font-size="16" fill="#ffffff" letter-spacing="3">30 WORLD-FIRST INNOVATIONS — PIPELINE COMPLETE</text>
<text x="600" y="48" text-anchor="middle" font-family="'Segoe UI',Arial,sans-serif" font-size="10" fill="#4a6080" letter-spacing="2">each with full constitutional test suite · human governor sign-off · hash-chained evidence artifact</text>

<!-- ROW 1: INNOV-01 to INNOV-05 -->

<!-- INNOV-01 CSAP -->
<g transform="translate(20,65)" style="animation:fadein .5s .1s both">
  <rect width="218" height="130" rx="8" fill="#0a1220" stroke="#4488ff" stroke-width="1.2"/>
  <rect width="218" height="3" rx="1.5" fill="#4488ff"/>
  <text x="10" y="20" class="card-phase" fill="#4488ff">INNOV-01 · Ph.87</text>
  <text x="10" y="34" class="card-label" fill="#ffffff">Constitutional</text>
  <text x="10" y="48" class="card-label" fill="#ffffff">Self-Amendment</text>
  <text x="10" y="64" class="card-desc">ADAAD proposes amendments</text>
  <text x="10" y="76" class="card-desc">to its own constitutional rules.</text>
  <text x="10" y="88" class="card-desc">Subject to unconditional</text>
  <text x="10" y="100" class="card-desc">human ratification (HUMAN-0).</text>
  <rect x="10" y="114" width="40" height="10" rx="4" fill="#4488ff" opacity=".15" stroke="#4488ff" stroke-width=".5"/>
  <text x="30" y="122" text-anchor="middle" class="card-phase" fill="#4488ff">CSAP</text>
</g>

<!-- INNOV-02 ACSE -->
<g transform="translate(248,65)" style="animation:fadein .5s .2s both">
  <rect width="218" height="130" rx="8" fill="#0a1220" stroke="#44aaff" stroke-width="1.2"/>
  <rect width="218" height="3" rx="1.5" fill="#44aaff"/>
  <text x="10" y="20" class="card-phase" fill="#44aaff">INNOV-02 · Ph.87</text>
  <text x="10" y="34" class="card-label" fill="#ffffff">Adversarial</text>
  <text x="10" y="48" class="card-label" fill="#ffffff">Constitutional Stress</text>
  <text x="10" y="64" class="card-desc">Dedicated agent attempts to</text>
  <text x="10" y="76" class="card-desc">violate every constitutional</text>
  <text x="10" y="88" class="card-desc">rule — stress-testing the</text>
  <text x="10" y="100" class="card-desc">governance surface.</text>
  <rect x="10" y="114" width="40" height="10" rx="4" fill="#44aaff" opacity=".15" stroke="#44aaff" stroke-width=".5"/>
  <text x="30" y="122" text-anchor="middle" class="card-phase" fill="#44aaff">ACSE</text>
</g>

<!-- INNOV-03 TIFE -->
<g transform="translate(476,65)" style="animation:fadein .5s .3s both">
  <rect width="218" height="130" rx="8" fill="#0a1220" stroke="#00ccff" stroke-width="1.2"/>
  <rect width="218" height="3" rx="1.5" fill="#00ccff"/>
  <text x="10" y="20" class="card-phase" fill="#00ccff">INNOV-03 · Ph.87</text>
  <text x="10" y="34" class="card-label" fill="#ffffff">Temporal Invariant</text>
  <text x="10" y="48" class="card-label" fill="#ffffff">Forecasting</text>
  <text x="10" y="64" class="card-desc">Predicts which invariants are</text>
  <text x="10" y="76" class="card-desc">likely to be violated in</text>
  <text x="10" y="88" class="card-desc">future epochs — before</text>
  <text x="10" y="100" class="card-desc">they actually fail.</text>
  <rect x="10" y="114" width="40" height="10" rx="4" fill="#00ccff" opacity=".15" stroke="#00ccff" stroke-width=".5"/>
  <text x="30" y="122" text-anchor="middle" class="card-phase" fill="#00ccff">TIFE</text>
</g>

<!-- INNOV-04 SCDD -->
<g transform="translate(704,65)" style="animation:fadein .5s .4s both">
  <rect width="218" height="130" rx="8" fill="#0a1220" stroke="#00ffcc" stroke-width="1.2"/>
  <rect width="218" height="3" rx="1.5" fill="#00ffcc"/>
  <text x="10" y="20" class="card-phase" fill="#00ffcc">INNOV-04 · Ph.88</text>
  <text x="10" y="34" class="card-label" fill="#ffffff">Semantic Drift</text>
  <text x="10" y="48" class="card-label" fill="#ffffff">Detection</text>
  <text x="10" y="64" class="card-desc">Detects when constitutional</text>
  <text x="10" y="76" class="card-desc">behaviour drifts from its</text>
  <text x="10" y="88" class="card-desc">historical baseline across</text>
  <text x="10" y="100" class="card-desc">epoch sequences.</text>
  <rect x="10" y="114" width="40" height="10" rx="4" fill="#00ffcc" opacity=".15" stroke="#00ffcc" stroke-width=".5"/>
  <text x="30" y="122" text-anchor="middle" class="card-phase" fill="#00ffcc">SCDD</text>
</g>

<!-- INNOV-05 AOEP -->
<g transform="translate(932,65)" style="animation:fadein .5s .5s both">
  <rect width="248" height="130" rx="8" fill="#0a1220" stroke="#44dd88" stroke-width="1.2"/>
  <rect width="248" height="3" rx="1.5" fill="#44dd88"/>
  <text x="10" y="20" class="card-phase" fill="#44dd88">INNOV-05 · Ph.89</text>
  <text x="10" y="34" class="card-label" fill="#ffffff">Autonomous Organ</text>
  <text x="10" y="48" class="card-label" fill="#ffffff">Emergence</text>
  <text x="10" y="64" class="card-desc">Proposes entirely new architectural</text>
  <text x="10" y="76" class="card-desc">organs to address capability gaps.</text>
  <text x="10" y="88" class="card-desc">Each requires human ratification</text>
  <text x="10" y="100" class="card-desc">before integration.</text>
  <rect x="10" y="114" width="40" height="10" rx="4" fill="#44dd88" opacity=".15" stroke="#44dd88" stroke-width=".5"/>
  <text x="30" y="122" text-anchor="middle" class="card-phase" fill="#44dd88">AOEP</text>
</g>

<!-- ROW 2: INNOV-06 to INNOV-10 -->

<!-- INNOV-06 CEPD -->
<g transform="translate(20,215)" style="animation:fadein .5s .6s both">
  <rect width="218" height="152" rx="8" fill="#100a20" stroke="#c084fc" stroke-width="1.5"/>
  <rect width="218" height="3" rx="1.5" fill="#c084fc"/>
  <text x="10" y="20" class="card-phase" fill="#c084fc">INNOV-06 · Ph.90</text>
  <text x="10" y="34" class="card-label" fill="#ffffff">Cryptographic Evolution</text>
  <text x="10" y="48" class="card-label" fill="#ffffff">Proof DAG</text>
  <text x="10" y="64" class="card-desc">Full lineage Merkle-rooted.</text>
  <text x="10" y="76" class="card-desc">Every mutation cryptographically</text>
  <text x="10" y="88" class="card-desc">bound to all causal ancestors.</text>
  <text x="10" y="100" class="card-desc">Independently verifiable.</text>
  <text x="10" y="112" class="card-desc">Legal-grade provenance.</text>
  <rect x="10" y="134" width="50" height="10" rx="4" fill="#c084fc" opacity=".15" stroke="#c084fc" stroke-width=".5"/>
  <text x="35" y="142" text-anchor="middle" class="card-phase" fill="#c084fc">CEPD</text>
</g>

<!-- INNOV-07 LSME -->
<g transform="translate(248,215)" style="animation:fadein .5s .7s both">
  <rect width="218" height="152" rx="8" fill="#002020" stroke="#00ccaa" stroke-width="1.5"/>
  <rect width="218" height="3" rx="1.5" fill="#00ccaa"/>
  <text x="10" y="20" class="card-phase" fill="#00ccaa">INNOV-07 · Ph.91</text>
  <text x="10" y="34" class="card-label" fill="#ffffff">Live Shadow Mutation</text>
  <text x="10" y="48" class="card-label" fill="#ffffff">Execution</text>
  <text x="10" y="64" class="card-desc">Zero-write shadow harness.</text>
  <text x="10" y="76" class="card-desc">Real traffic patterns.</text>
  <text x="10" y="88" class="card-desc">ShadowFitnessReport: divergence</text>
  <text x="10" y="100" class="card-desc">rate · error delta · P99 latency.</text>
  <text x="10" y="112" class="card-desc">Regression = hard block.</text>
  <rect x="10" y="134" width="50" height="10" rx="4" fill="#00ccaa" opacity=".15" stroke="#00ccaa" stroke-width=".5"/>
  <text x="35" y="142" text-anchor="middle" class="card-phase" fill="#00ccaa">LSME</text>
</g>

<!-- INNOV-08 AFRT -->
<g transform="translate(476,215)" style="animation:fadein .5s .8s both">
  <rect width="218" height="152" rx="8" fill="#200010" stroke="#ff4466" stroke-width="1.5"/>
  <rect width="218" height="3" rx="1.5" fill="#ff4466"/>
  <text x="10" y="20" class="card-phase" fill="#ff4466">INNOV-08 · Ph.92</text>
  <text x="10" y="34" class="card-label" fill="#ffffff">Adversarial Fitness</text>
  <text x="10" y="48" class="card-label" fill="#ffffff">Red Team</text>
  <text x="10" y="64" class="card-desc">Red Team Agent generates</text>
  <text x="10" y="76" class="card-desc">targeted adversarial cases</text>
  <text x="10" y="88" class="card-desc">before governance scoring.</text>
  <text x="10" y="100" class="card-desc">PASS or RETURNED only.</text>
  <text x="10" y="112" class="card-desc">Cannot approve. Structural.</text>
  <rect x="10" y="134" width="40" height="10" rx="4" fill="#ff4466" opacity=".15" stroke="#ff4466" stroke-width=".5"/>
  <text x="30" y="142" text-anchor="middle" class="card-phase" fill="#ff4466">AFRT</text>
</g>

<!-- INNOV-09 AFIT -->
<g transform="translate(704,215)" style="animation:fadein .5s .9s both">
  <rect width="218" height="152" rx="8" fill="#101800" stroke="#88cc00" stroke-width="1.5"/>
  <rect width="218" height="3" rx="1.5" fill="#88cc00"/>
  <text x="10" y="20" class="card-phase" fill="#88cc00">INNOV-09 · Ph.93</text>
  <text x="10" y="34" class="card-label" fill="#ffffff">Aesthetic Fitness</text>
  <text x="10" y="48" class="card-label" fill="#ffffff">Signal</text>
  <text x="10" y="64" class="card-desc">Code readability scored across</text>
  <text x="10" y="76" class="card-desc">5 AST axes: function length,</text>
  <text x="10" y="88" class="card-desc">name entropy, nesting depth,</text>
  <text x="10" y="100" class="card-desc">comment ratio, cyclomatic.</text>
  <text x="10" y="112" class="card-desc">Governed, weighted signal.</text>
  <rect x="10" y="134" width="40" height="10" rx="4" fill="#88cc00" opacity=".15" stroke="#88cc00" stroke-width=".5"/>
  <text x="30" y="142" text-anchor="middle" class="card-phase" fill="#88cc00">AFIT</text>
</g>

<!-- INNOV-10 MMEM — highlighted as latest -->
<g transform="translate(932,215)" style="animation:fadein .5s 1s both">
  <rect width="248" height="152" rx="8" fill="#002030" stroke="#00d4ff" stroke-width="2"/>
  <rect width="248" height="3" rx="1.5" fill="#00d4ff"/>
  <!-- NEW badge -->
  <rect x="178" y="8" width="60" height="14" rx="7" fill="#00d4ff" opacity=".9"/>
  <text x="208" y="19" text-anchor="middle" font-family="'Segoe UI',Arial,sans-serif" font-weight="700" font-size="9" fill="#000000">LATEST</text>
  <text x="10" y="20" class="card-phase" fill="#00d4ff">INNOV-10 · Ph.94</text>
  <text x="10" y="34" class="card-label" fill="#ffffff">Morphogenetic</text>
  <text x="10" y="48" class="card-label" fill="#ffffff">Memory</text>
  <text x="10" y="64" class="card-desc">Hash-chained HUMAN-0-gated</text>
  <text x="10" y="76" class="card-desc">IdentityLedger encodes the</text>
  <text x="10" y="88" class="card-desc">system's self-model. Consulted</text>
  <text x="10" y="100" class="card-desc">pre-proposal via Phase 0d.</text>
  <text x="10" y="112" class="card-desc">Detects identity drift at root.</text>
  <rect x="10" y="134" width="50" height="10" rx="4" fill="#00d4ff" opacity=".2" stroke="#00d4ff" stroke-width=".8"/>
  <text x="35" y="142" text-anchor="middle" class="card-phase" fill="#00d4ff">MMEM</text>
  <!-- Pulsing glow effect -->
  <rect width="248" height="152" rx="8" fill="none" stroke="#00d4ff" stroke-width=".5"><animate attributeName="opacity" values=".3;.8;.3" dur="2.5s" repeatCount="indefinite"/></rect>
</g>

<!-- Bottom bar -->
<rect x="0" y="385" width="1200" height="15" fill="#050810"/>
<rect x="0" y="385" width="1200" height="1" fill="#1a2332"/>
<text x="600" y="396" text-anchor="middle" font-family="'Segoe UI',Arial,sans-serif" font-size="9" fill="#4a5568" letter-spacing="1.5">20 FURTHER INNOVATIONS ROADMAPPED · FULL SPECIFICATIONS: ADAAD_30_INNOVATIONS.md</text>
<!-- Animated progress bar -->
<rect x="0" y="397" width="1200" height="3"><animate attributeName="fill" values="#00d4ff;#00ff88;#a855f7;#ff4466;#00d4ff" dur="4s" repeatCount="indefinite"/></rect>
</svg>
