<svg xmlns="http://www.w3.org/2000/svg" viewBox="0 0 1238 88" width="100%" preserveAspectRatio="xMidYMid meet">
  <defs>
    <style>
      @keyframes cur{0%,100%{opacity:.5}50%{opacity:1}}
      @keyframes ms{0%,100%{opacity:.8}50%{opacity:1}}
      .cur{animation:cur 1.5s ease-in-out infinite}
      .ms{animation:ms 3s ease-in-out infinite}
    </style>
    <linearGradient id="doneGrad" x1="0" y1="0" x2="1" y2="0"><stop offset="0%" stop-color="#00d4ff" stop-opacity=".55"/><stop offset="100%" stop-color="#a855f7" stop-opacity=".35"/></linearGradient>
    <filter id="gmil"><feGaussianBlur stdDeviation="3" result="b"/><feMerge><feMergeNode in="b"/><feMergeNode in="SourceGraphic"/></feMerge></filter>
    <filter id="gcur"><feGaussianBlur stdDeviation="4" result="b"/><feMerge><feMergeNode in="b"/><feMergeNode in="SourceGraphic"/></feMerge></filter>
  </defs>
  <rect width="1238" height="88" fill="#060a0f"/>
  <text x="20" y="20" font-family="'JetBrains Mono','Courier New',monospace" font-size="16" fill="rgba(255,255,255,.4)" letter-spacing="3">PHASE EVOLUTION — 108 OF 114 PROJECTED</text>
  <rect x="20" y="32" width="10" height="28" rx="2" fill="url(#doneGrad)"/>
  <rect x="32" y="32" width="10" height="28" rx="2" fill="url(#doneGrad)"/>
  <rect x="44" y="32" width="10" height="28" rx="2" fill="url(#doneGrad)"/>
  <rect x="56" y="32" width="10" height="28" rx="2" fill="url(#doneGrad)"/>
  <rect x="68" y="32" width="10" height="28" rx="2" fill="url(#doneGrad)"/>
  <rect x="80" y="32" width="10" height="28" rx="2" fill="url(#doneGrad)"/>
  <rect x="92" y="32" width="10" height="28" rx="2" fill="url(#doneGrad)"/>
  <rect x="104" y="32" width="10" height="28" rx="2" fill="url(#doneGrad)"/>
  <rect x="116" y="32" width="10" height="28" rx="2" fill="url(#doneGrad)"/>
  <rect x="128" y="32" width="10" height="28" rx="2" fill="url(#doneGrad)"/>
  <rect x="140" y="32" width="10" height="28" rx="2" fill="url(#doneGrad)"/>
  <rect x="152" y="32" width="10" height="28" rx="2" fill="url(#doneGrad)"/>
  <rect x="164" y="32" width="10" height="28" rx="2" fill="url(#doneGrad)"/>
  <rect x="176" y="32" width="10" height="28" rx="2" fill="url(#doneGrad)"/>
  <rect x="188" y="32" width="10" height="28" rx="2" fill="url(#doneGrad)"/>
  <rect x="200" y="32" width="10" height="28" rx="2" fill="url(#doneGrad)"/>
  <rect x="212" y="32" width="10" height="28" rx="2" fill="url(#doneGrad)"/>
  <rect x="224" y="32" width="10" height="28" rx="2" fill="url(#doneGrad)"/>
  <rect x="236" y="32" width="10" height="28" rx="2" fill="url(#doneGrad)"/>
  <rect x="248" y="32" width="10" height="28" rx="2" fill="url(#doneGrad)"/>
  <rect x="260" y="32" width="10" height="28" rx="2" fill="url(#doneGrad)"/>
  <rect x="272" y="32" width="10" height="28" rx="2" fill="url(#doneGrad)"/>
  <rect x="284" y="32" width="10" height="28" rx="2" fill="url(#doneGrad)"/>
  <rect x="296" y="32" width="10" height="28" rx="2" fill="url(#doneGrad)"/>
  <rect x="308" y="32" width="10" height="28" rx="2" fill="url(#doneGrad)"/>
  <rect x="320" y="32" width="10" height="28" rx="2" fill="url(#doneGrad)"/>
  <rect x="332" y="32" width="10" height="28" rx="2" fill="url(#doneGrad)"/>
  <rect x="344" y="32" width="10" height="28" rx="2" fill="url(#doneGrad)"/>
  <rect x="356" y="32" width="10" height="28" rx="2" fill="url(#doneGrad)"/>
  <rect x="368" y="32" width="10" height="28" rx="2" fill="url(#doneGrad)"/>
  <rect x="380" y="32" width="10" height="28" rx="2" fill="url(#doneGrad)"/>
  <rect x="392" y="32" width="10" height="28" rx="2" fill="url(#doneGrad)"/>
  <rect x="404" y="32" width="10" height="28" rx="2" fill="url(#doneGrad)"/>
  <rect x="416" y="32" width="10" height="28" rx="2" fill="url(#doneGrad)"/>
  <rect x="428" y="32" width="10" height="28" rx="2" fill="url(#doneGrad)"/>
  <rect x="440" y="32" width="10" height="28" rx="2" fill="url(#doneGrad)"/>
  <rect x="452" y="32" width="10" height="28" rx="2" fill="url(#doneGrad)"/>
  <rect x="464" y="32" width="10" height="28" rx="2" fill="url(#doneGrad)"/>
  <rect x="476" y="32" width="10" height="28" rx="2" fill="url(#doneGrad)"/>
  <rect x="488" y="32" width="10" height="28" rx="2" fill="url(#doneGrad)"/>
  <rect x="500" y="32" width="10" height="28" rx="2" fill="url(#doneGrad)"/>
  <rect x="512" y="32" width="10" height="28" rx="2" fill="url(#doneGrad)"/>
  <rect x="524" y="32" width="10" height="28" rx="2" fill="url(#doneGrad)"/>
  <rect x="536" y="32" width="10" height="28" rx="2" fill="url(#doneGrad)"/>
  <rect x="548" y="32" width="10" height="28" rx="2" fill="url(#doneGrad)"/>
  <rect x="560" y="32" width="10" height="28" rx="2" fill="url(#doneGrad)"/>
  <rect x="572" y="32" width="10" height="28" rx="2" fill="url(#doneGrad)"/>
  <rect x="584" y="32" width="10" height="28" rx="2" fill="url(#doneGrad)"/>
  <rect x="596" y="32" width="10" height="28" rx="2" fill="url(#doneGrad)"/>
  <rect x="608" y="32" width="10" height="28" rx="2" fill="url(#doneGrad)"/>
  <rect x="620" y="32" width="10" height="28" rx="2" fill="url(#doneGrad)"/>
  <rect x="632" y="32" width="10" height="28" rx="2" fill="url(#doneGrad)"/>
  <rect x="644" y="32" width="10" height="28" rx="2" fill="url(#doneGrad)"/>
  <rect x="656" y="32" width="10" height="28" rx="2" fill="url(#doneGrad)"/>
  <rect x="668" y="32" width="10" height="28" rx="2" fill="url(#doneGrad)"/>
  <rect x="680" y="32" width="10" height="28" rx="2" fill="url(#doneGrad)"/>
  <rect x="692" y="32" width="10" height="28" rx="2" fill="url(#doneGrad)"/>
  <rect x="704" y="32" width="10" height="28" rx="2" fill="url(#doneGrad)"/>
  <rect x="716" y="32" width="10" height="28" rx="2" fill="url(#doneGrad)"/>
  <rect x="728" y="32" width="10" height="28" rx="2" fill="url(#doneGrad)"/>
  <rect x="740" y="32" width="10" height="28" rx="2" fill="url(#doneGrad)"/>
  <rect x="752" y="32" width="10" height="28" rx="2" fill="url(#doneGrad)"/>
  <rect x="764" y="32" width="10" height="28" rx="2" fill="url(#doneGrad)"/>
  <rect x="776" y="32" width="10" height="28" rx="2" fill="url(#doneGrad)"/>
  <rect x="788" y="32" width="10" height="28" rx="2" fill="url(#doneGrad)"/>
  <rect x="800" y="32" width="10" height="28" rx="2" fill="url(#doneGrad)"/>
  <rect x="812" y="32" width="10" height="28" rx="2" fill="url(#doneGrad)"/>
  <rect x="824" y="32" width="10" height="28" rx="2" fill="url(#doneGrad)"/>
  <rect x="836" y="32" width="10" height="28" rx="2" fill="url(#doneGrad)"/>
  <rect x="848" y="32" width="10" height="28" rx="2" fill="url(#doneGrad)"/>
  <rect x="860" y="32" width="10" height="28" rx="2" fill="url(#doneGrad)"/>
  <rect x="872" y="32" width="10" height="28" rx="2" fill="url(#doneGrad)"/>
  <rect x="884" y="32" width="10" height="28" rx="2" fill="url(#doneGrad)"/>
  <rect x="896" y="32" width="10" height="28" rx="2" fill="url(#doneGrad)"/>
  <rect x="908" y="32" width="10" height="28" rx="2" fill="url(#doneGrad)"/>
  <rect x="920" y="32" width="10" height="28" rx="2" fill="url(#doneGrad)"/>
  <rect x="932" y="32" width="10" height="28" rx="2" fill="url(#doneGrad)"/>
  <rect x="944" y="32" width="10" height="28" rx="2" fill="url(#doneGrad)"/>
  <rect x="956" y="32" width="10" height="28" rx="2" fill="url(#doneGrad)"/>
  <rect x="968" y="32" width="10" height="28" rx="2" fill="url(#doneGrad)"/>
  <rect x="980" y="32" width="10" height="28" rx="2" fill="url(#doneGrad)"/>
  <rect x="992" y="32" width="10" height="28" rx="2" fill="url(#doneGrad)"/>
  <rect x="1004" y="32" width="10" height="28" rx="2" fill="url(#doneGrad)"/>
  <rect x="1016" y="32" width="10" height="28" rx="2" fill="url(#doneGrad)"/>
  <rect x="1028" y="32" width="10" height="28" rx="2" fill="url(#doneGrad)"/>
  <rect x="1040" y="32" width="10" height="28" rx="2" fill="url(#doneGrad)"/>
  <rect x="1052" y="32" width="10" height="28" rx="2" fill="url(#doneGrad)"/>
  <rect x="1064" y="32" width="10" height="28" rx="2" fill="url(#doneGrad)"/>
  <rect x="1076" y="32" width="10" height="28" rx="2" fill="url(#doneGrad)"/>
  <rect x="1088" y="32" width="10" height="28" rx="2" fill="url(#doneGrad)"/>
  <rect x="1100" y="32" width="10" height="28" rx="2" fill="url(#doneGrad)"/>
  <rect x="1112" y="32" width="10" height="28" rx="2" fill="url(#doneGrad)"/>
  <rect x="1124" y="32" width="10" height="28" rx="2" fill="url(#doneGrad)"/>
  <rect x="1136" y="32" width="10" height="28" rx="2" fill="url(#doneGrad)"/>
  <rect x="1148" y="32" width="10" height="28" rx="2" fill="url(#doneGrad)"/>
  <rect x="1160" y="32" width="10" height="28" rx="2" fill="url(#doneGrad)"/>
  <rect x="1172" y="32" width="10" height="28" rx="2" fill="url(#doneGrad)"/>
  <rect x="1184" y="32" width="10" height="28" rx="2" fill="url(#doneGrad)"/>
  <rect x="1196" y="32" width="10" height="28" rx="2" fill="url(#doneGrad)"/>
  <rect x="1208" y="32" width="10" height="28" rx="2" fill="url(#doneGrad)"/>
  <rect x="1220" y="32" width="10" height="28" rx="2" fill="url(#doneGrad)"/>
  <rect x="1232" y="32" width="10" height="28" rx="2" fill="url(#doneGrad)"/>
  <rect x="1244" y="32" width="10" height="28" rx="2" fill="url(#doneGrad)"/>
  <rect x="1256" y="32" width="10" height="28" rx="2" fill="url(#doneGrad)"/>
  <rect x="1268" y="32" width="10" height="28" rx="2" fill="url(#doneGrad)"/>
  <rect x="1280" y="32" width="10" height="28" rx="2" fill="url(#doneGrad)"/>
  <rect x="1292" y="32" width="10" height="28" rx="2" fill="url(#doneGrad)"/>
  <rect x="1304" y="32" width="10" height="28" rx="2" fill="url(#doneGrad)"/>
  <rect x="1316" y="32" width="10" height="28" rx="2" fill="#00d4ff" opacity="0.9" class="cur" filter="url(#gcur)"/>
  <rect x="1328" y="32" width="10" height="28" rx="2" fill="#21262d" opacity="0.4"/>
  <rect x="1340" y="32" width="10" height="28" rx="2" fill="#21262d" opacity="0.4"/>
  <rect x="1352" y="32" width="10" height="28" rx="2" fill="#21262d" opacity="0.4"/>
  <rect x="1364" y="32" width="10" height="28" rx="2" fill="#21262d" opacity="0.4"/>
  <rect x="1376" y="32" width="10" height="28" rx="2" fill="#21262d" opacity="0.4"/>
  <text x="20" y="76" font-family="'JetBrains Mono',monospace" font-size="10" fill="rgba(255,255,255,.25)">Phase 108 ✓ · INNOV-23 CES · 107 Hard Invariants · v9.41.0 · 2026-04-03</text>
</svg>